<svg width="95" height="111" viewBox="0 0 95 111" fill="currentColor"
    xmlns="http://www.w3.org/2000/svg">
    <mask id="mask0_855_343" style="mask-type:luminance" maskUnits="userSpaceOnUse" x="0" y="0"
        width="95" height="111">
        <path d="M0 0H95V111H0V0Z" fill="currentColor" />
    </mask>
    <g mask="url(#mask0_855_343)">
        <mask id="mask1_855_343" style="mask-type:luminance" maskUnits="userSpaceOnUse" x="0" y="0"
            width="95" height="111">
            <path d="M47.5 0L95 27.75V83.25L47.5 111L0 83.25V27.75L47.5 0Z" fill="currentColor" />
        </mask>
        <g mask="url(#mask1_855_343)">
            <path d="M47.5 0L95 27.75V83.25L47.5 111L0 83.25V27.75L47.5 0Z" stroke="black"
                stroke-width="25.9939" />
        </g>
    </g>
    <path
        d="M58.1051 66.1842H36.9176L32.876 75.9551H22.0635L42.3968 30.3301H52.8135L73.2093 75.9551H62.1468L58.1051 66.1842ZM54.7718 58.1634L47.5426 40.7051L40.3135 58.1634H54.7718Z"
        fill="currentColor" />
</svg>